<mxfile host="app.diagrams.net" modified="2023-09-30T06:59:40.810Z" agent="Mozilla/5.0 (Windows NT 10.0; Win64; x64) AppleWebKit/537.36 (KHTML, like Gecko) Chrome/117.0.0.0 Safari/537.36 Edg/117.0.2045.43" version="22.0.0" etag="HKkU6oAog81x7BPhvjyX" type="github">
  <diagram name="第 1 页" id="CeplcZcWKteRM2vLw57B">
    <mxGraphModel>
      <root>
        <mxCell id="0" />
        <mxCell id="1" parent="0" />
      </root>
    </mxGraphModel>
  </diagram>
</mxfile>
